<mxfile host="app.diagrams.net" modified="2022-11-20T06:02:45.529Z" agent="5.0 (X11)" etag="0cCWz4C0aVXxGhWMsczG" version="20.5.3" type="github" pages="2">
  <diagram id="GIpgCJcC-jVWF7gMhHsp" name="Network">
    <mxGraphModel dx="1574" dy="1973" grid="1" gridSize="10" guides="1" tooltips="1" connect="1" arrows="1" fold="1" page="1" pageScale="1" pageWidth="850" pageHeight="1100" math="0" shadow="0">
      <root>
        <mxCell id="0" />
        <mxCell id="1" parent="0" />
        <mxCell id="-9d_PE074A_p4kZVie2n-13" value="" style="group" vertex="1" connectable="0" parent="1">
          <mxGeometry x="30" y="-10" width="410" height="340" as="geometry" />
        </mxCell>
        <mxCell id="-9d_PE074A_p4kZVie2n-3" value="" style="rounded=1;arcSize=10;strokeColor=none;fillColor=#DBDBDB;gradientColor=none;" vertex="1" parent="-9d_PE074A_p4kZVie2n-13">
          <mxGeometry y="58.620689655172406" width="410" height="281.37931034482756" as="geometry" />
        </mxCell>
        <mxCell id="-9d_PE074A_p4kZVie2n-2" value="&lt;div&gt;Server (Any IP network, including internet or microwave links)&lt;/div&gt;" style="aspect=fixed;perimeter=ellipsePerimeter;html=1;align=center;shadow=0;dashed=0;spacingTop=3;image;image=img/lib/active_directory/generic_server.svg;" vertex="1" parent="-9d_PE074A_p4kZVie2n-13">
          <mxGeometry x="160" width="28.000000000000004" height="50" as="geometry" />
        </mxCell>
        <mxCell id="-9d_PE074A_p4kZVie2n-4" value="&lt;div&gt;Reflector Web &lt;br&gt;&lt;/div&gt;&lt;div&gt;Dashboard&lt;/div&gt;&lt;div&gt;(any web server)&lt;br&gt;&lt;/div&gt;&lt;br&gt;&lt;div&gt;::80 / ::443 (TCP)&lt;/div&gt;" style="dashed=0;outlineConnect=0;html=1;align=center;labelPosition=center;verticalLabelPosition=bottom;verticalAlign=top;shape=mxgraph.weblogos.apache;labelBackgroundColor=default;" vertex="1" parent="-9d_PE074A_p4kZVie2n-13">
          <mxGeometry x="30" y="81.4" width="42.6" height="85.2" as="geometry" />
        </mxCell>
        <mxCell id="FWqg4HvqDN0VGGEIyTF8-25" style="edgeStyle=orthogonalEdgeStyle;rounded=0;orthogonalLoop=1;jettySize=auto;html=1;exitX=0;exitY=0.5;exitDx=0;exitDy=0;fontSize=20;fontColor=#000000;startArrow=none;startFill=0;endArrow=classic;endFill=1;" edge="1" parent="1" source="-9d_PE074A_p4kZVie2n-1" target="-9d_PE074A_p4kZVie2n-4">
          <mxGeometry relative="1" as="geometry" />
        </mxCell>
        <mxCell id="FWqg4HvqDN0VGGEIyTF8-26" value="Dashboard reads json state" style="edgeLabel;html=1;align=center;verticalAlign=middle;resizable=0;points=[];fontSize=12;fontColor=#000000;" vertex="1" connectable="0" parent="FWqg4HvqDN0VGGEIyTF8-25">
          <mxGeometry x="0.1658" y="2" relative="1" as="geometry">
            <mxPoint x="20" y="-2" as="offset" />
          </mxGeometry>
        </mxCell>
        <mxCell id="-9d_PE074A_p4kZVie2n-1" value="&lt;div&gt;DVRef-compatible&lt;/div&gt;&lt;div&gt;Reflector&lt;br&gt;e.g.&lt;b&gt;mrefd&lt;/b&gt; M17-XVF&lt;br&gt;&lt;/div&gt;&lt;br&gt;&lt;div&gt;::17000 (UDP)&lt;br&gt;(This diagram ignores &lt;br&gt;modules/channels)&lt;br&gt;&lt;/div&gt;" style="shape=image;html=1;verticalAlign=top;verticalLabelPosition=bottom;labelBackgroundColor=default;imageAspect=0;aspect=fixed;image=https://cdn4.iconfinder.com/data/icons/ui-office/512/User_Interface-26-128.png" vertex="1" parent="1">
          <mxGeometry x="297" y="50" width="128" height="128" as="geometry" />
        </mxCell>
        <mxCell id="-9d_PE074A_p4kZVie2n-11" value="" style="group" vertex="1" connectable="0" parent="1">
          <mxGeometry x="570" y="-220.00000000000003" width="450" height="324.75" as="geometry" />
        </mxCell>
        <mxCell id="-9d_PE074A_p4kZVie2n-20" value="" style="group" vertex="1" connectable="0" parent="-9d_PE074A_p4kZVie2n-11">
          <mxGeometry x="110" y="-260" width="320" height="324.75" as="geometry" />
        </mxCell>
        <mxCell id="-9d_PE074A_p4kZVie2n-10" value="" style="rounded=1;arcSize=10;strokeColor=none;fillColor=#DBDBDB;gradientColor=none;" vertex="1" parent="-9d_PE074A_p4kZVie2n-20">
          <mxGeometry y="50.00000000000003" width="320" height="274.75" as="geometry" />
        </mxCell>
        <mxCell id="-9d_PE074A_p4kZVie2n-14" value="" style="html=1;strokeWidth=1;shadow=0;dashed=0;shape=mxgraph.ios7ui.appBar;fillColor=#A2A39E;gradientColor=none;sketch=0;hachureGap=4;pointerEvents=0;fontFamily=Architects Daughter;fontSource=https%3A%2F%2Ffonts.googleapis.com%2Fcss%3Ffamily%3DArchitects%2BDaughter;fontSize=20;" vertex="1" parent="-9d_PE074A_p4kZVie2n-20">
          <mxGeometry y="50" width="320" height="30" as="geometry" />
        </mxCell>
        <mxCell id="-9d_PE074A_p4kZVie2n-15" value="CARRIER" style="shape=rect;align=left;fontSize=8;spacingLeft=24;fontSize=4;fontColor=#aaaaaa;strokeColor=none;fillColor=none;spacingTop=4;sketch=0;hachureGap=4;pointerEvents=0;fontFamily=Architects Daughter;fontSource=https%3A%2F%2Ffonts.googleapis.com%2Fcss%3Ffamily%3DArchitects%2BDaughter;" vertex="1" parent="-9d_PE074A_p4kZVie2n-14">
          <mxGeometry y="0.5" width="50" height="13" relative="1" as="geometry">
            <mxPoint y="-6.5" as="offset" />
          </mxGeometry>
        </mxCell>
        <mxCell id="-9d_PE074A_p4kZVie2n-16" value="11:55PM" style="shape=rect;fontSize=8;fontColor=#aaaaaa;strokeColor=none;fillColor=none;spacingTop=4;sketch=0;hachureGap=4;pointerEvents=0;fontFamily=Architects Daughter;fontSource=https%3A%2F%2Ffonts.googleapis.com%2Fcss%3Ffamily%3DArchitects%2BDaughter;" vertex="1" parent="-9d_PE074A_p4kZVie2n-14">
          <mxGeometry x="0.5" y="0.5" width="50" height="13" relative="1" as="geometry">
            <mxPoint x="-30" y="-6.5" as="offset" />
          </mxGeometry>
        </mxCell>
        <mxCell id="-9d_PE074A_p4kZVie2n-17" value="98%" style="shape=rect;align=right;fontSize=8;spacingRight=19;fontSize=6;fontColor=#aaaaaa;strokeColor=none;fillColor=none;spacingTop=4;sketch=0;hachureGap=4;pointerEvents=0;fontFamily=Architects Daughter;fontSource=https%3A%2F%2Ffonts.googleapis.com%2Fcss%3Ffamily%3DArchitects%2BDaughter;" vertex="1" parent="-9d_PE074A_p4kZVie2n-14">
          <mxGeometry x="1" y="0.5" width="45" height="13" relative="1" as="geometry">
            <mxPoint x="-45" y="-6.5" as="offset" />
          </mxGeometry>
        </mxCell>
        <mxCell id="-9d_PE074A_p4kZVie2n-9" value="&lt;div&gt;Android / iPhone&lt;/div&gt;" style="sketch=0;points=[[0.015,0.015,0],[0.985,0.015,0],[0.985,0.985,0],[0.015,0.985,0],[0.25,0,0],[0.5,0,0],[0.75,0,0],[1,0.25,0],[1,0.5,0],[1,0.75,0],[0.75,1,0],[0.5,1,0],[0.25,1,0],[0,0.75,0],[0,0.5,0],[0,0.25,0]];verticalLabelPosition=bottom;html=1;verticalAlign=top;aspect=fixed;align=center;pointerEvents=1;shape=mxgraph.cisco19.cell_phone;fillColor=#005073;strokeColor=none;" vertex="1" parent="-9d_PE074A_p4kZVie2n-20">
          <mxGeometry x="147.5" width="25" height="50" as="geometry" />
        </mxCell>
        <mxCell id="FWqg4HvqDN0VGGEIyTF8-11" value="&lt;div align=&quot;center&quot;&gt;&lt;b&gt;&lt;font style=&quot;font-size: 20px;&quot;&gt;Droidstar&lt;/font&gt;&lt;/b&gt;&lt;/div&gt;" style="shape=image;html=1;verticalAlign=top;verticalLabelPosition=bottom;labelBackgroundColor=#ffffff;imageAspect=0;aspect=fixed;image=data:image/png,iVBORw0KGgoAAAANSUhEUgAAASgAAAEoCAIAAABkZftOAAABfGlDQ1BpY2MAACiRfZE9SMNAHMVfU6UiFQdLEVHIUJ0sFBVx1CoUoUKoFVp1MLn0C5o0JCkujoJrwcGPxaqDi7OuDq6CIPgB4uTopOgiJf4vLbSI8eC4H+/uPe7eAUK9zDSrKwZoum2mEnExk10VA68IYgRhxBCWmWXMSVISnuPrHj6+3kV5lve5P0efmrMY4BOJZ5lh2sQbxNObtsF5nzjEirJKfE48btIFiR+5rjT5jXPBZYFnhsx0ap44RCwWOljpYFY0NeIp4oiq6ZQvZJqsct7irJWrrHVP/sJgTl9Z5jrNYSSwiCVIEKGgihLKsBGlVSfFQor24x7+IdcvkUshVwmMHAuoQIPs+sH/4He3Vn5yopkUjAPdL47zMQoEdoFGzXG+jx2ncQL4n4Erve2v1IGZT9JrbS1yBPRvAxfXbU3ZAy53gMEnQzZlV/LTFPJ54P2MvikLDNwCvWvN3lr7OH0A0tRV8gY4OATGCpS97vHuns7e/j3T6u8HttZywlchcSoAAAADc0JJVAgICNvhT+AAAAAGYktHRAD/AP8A/6C9p5MAAABfelRYdFJhdyBwcm9maWxlIHR5cGUgQVBQMQAACJnjSk/NSy3KTFYoKMpPy8xJ5VIAA2MTLhNLE0ujRAMDAwsDCDA0MDA2BJJGQLY5VCjRAAWYGphZmhmbGZoDMYjPBQBIthTJOtRDMgAAHiJJREFUeJzt3Xl0FFXaBvCnuxMSdpTdoMA4YTGCCOKCoOCwCCKjuOAJCIeoKEsg8IEjogyohyGIgkZQgRkgkLDFYRmWAcYgIwIa9i0EzAQIISYhIfva3fX90TGQpJfq6uq+XZ3ndzie2F1164XkSXXVvXWvTpIkEJFn6UUXQFQXMXhEAjB4RAIweEQCMHhEAjB4RAIweEQCMHhEAjB4RAIweEQCMHhEAjB4RAIweEQCMHhEAjB4RAIweEQCMHhEAjB4RAIweEQCMHhEAjB4RAIweEQCMHhEAjB4RAIweEQCMHhEAjB4RAIweEQCMHhEAjB4RAIweEQCMHhEAjB4RAIweEQCMHhEAjB4RAIweEQCMHhEAjB4RAIweEQCMHhEAjB4RAIweEQCMHhEAjB4RAIweEQCMHhEAjB4RAIweEQCMHhEAjB4RAIweEQCMHhEAjB4RAIweEQCMHhEAjB4RAIweEQCMHhEAjB4RAIweEQCMHhEAjB4RAIweEQCMHhEAjB4RAIweEQCMHhEAjB4RAIweEQCMHikjqIiVFSILkI7GDxSgSQhKQmJiaLr0A4Gj9Rx+TIuXhRdhHYweKSOzEwkJCAvT3QdGsHgkTpKS7F4MW7eFF2HRjB4pIKiosrIpaWJLkUjGDxSQVZW5QXef/6DkhLR1WgBg0cqyM3FoUMAcOIE8vNFV6MFDB6poLQUOTkAcPIkTpwQXY0WMHikgvLyyi9u3GCngiwMHrmqogLXrt3+35MnkZ4urhqNYPDIVSUl1c5y69bx3qZjDB65qrwcv/5a7ZXz52E2C6pGIxg8cpXJVPMUt2EDSksFVaMRDB65qrgYxcXVXtm7F5mZgqrRCAaPXJWcbCVmP/3ET5v2MHjkqv/9z8rdlHPnbvcxUG0MHrnq+nUrLx45gpQUj5eiHQweuSo318qLBw9W69yjGhg8cklhofXgAThzBkVFnq1GOxg8ckl6OlJTrb+1Zw+fi7WJwSOXZGTg3Dnrb506xcs8mxg8cklBgc2nzm/dwp49kCTPFqQRDB65xP4IlbNnUVjoqVI0hcEj5YxGBw8i/Pwzzp71VDWawuCRcgUFOHnS3gYZGUhK8lQ1msLgkXJlZUhIcLDNTz8hO9sj1WiKTuLFLyl1/TruvdfxZpcuITjY/dVoCs94pJzMxRIuXYLJ5OZStIbBI4XMZiQny9py506Ulbm5Gq1h8Eghk6nmg+e2XL7Mx/NqYvBIIbMZV6/K2vL773H8uJur0RoGjxSSJCduV16+DKPRndVoDYNHChUXOzEq5aefcOWKG4vRHAaPFEpLs/lcQm07d3KyzWoYPFIoPR2nTjmx/bFjXKv5NgaPFMrJcW4A9Ndfc86/2xg8UsjZ5bguX+bjebcxeKREWZmSEZg//uiGUrSJwSMlbt2S23t+p4sXOQtLJQaPlMjPx/nzTu+1aRMX8arE4JES5eU4etTpvbKycOOGG6rRIAaPlCgvVzgS5ehRm9MB1ikMHikhc5Rmbdu2cc4/gMEjBSoqcOaMwn0vXMDZs5x6jMEj55lMLs2kcvAgn4tl8Mh5kuRS8JKSbE7FWXcweOS08nInhkfX9q9/8fE8Bo+cl5KCrCyXWlDQ+e5jGDxymuJbmlV2767rk0EweOS0335ztYV9+5CTo0YpmsXgkdPy81Vo5PDhOv14HoNHzikrU2foyfff1+k5/xg8cs7Nm7h8WYV2kpLq9FrNDB45JzfX8XoJchw/Xqc7FRg8ck5xsWrzhf36a919PI/BI+eUl6vW1H/+o0LPhEYxeOQEkwkZGaq1dvhw3Z3zz090AT6rsBBZWdDpEBAAAH5+8PcHAIMB9epVfuGntX/+0lIkJqrZYHw8nngCDRqo2aZnFBfDYKj85iqgte+8dtSrh6tX8e9/IyEBgYGoXx8BAdDpbgfPz6/yizvpdJV/qr4GYDBAr6/cRa+HXg9//8q3/Pwq0xsQAIOhMueWjf39K9sPCICfH3Q6BAZWNlW/fuXuAQHw9698RV/r049lmzsLy8lRMuODHdu2ISLCq4NnNKK4GBUVMBqRmYmkJCQmoqwMAwfiySeVN8uFKd3IbEZGBo4eRVwcYmM9d1xLhAIDK38fW9IFoF496PXQ6W4H3s+vMq6W+Fl+FqryZmlHp7sddaMRx46p04FeJT4eAwao2aBiVVHIyUF2NgoKUFqKq1dx/jwuXsRvv+HWLSQmYuxYhIeje3crvzflY/A8ISMDR45gxQrs2SO6FO/z8cf44AMxhzabYTJBkmA04n//Q0oKMjJQWIgrV3DmDA4csLLLwoUYPx6tWrl6aAbPc4qKsH8/vvsO69eLLsWbvPYaoqLQooUnjiVJyMlBXh7KylBYiMREHD2K06eRkuL4Ns+QIZg7F48+qs6VOYPnaZmZOH0a69cjOlp0KV7jyBE8/rjKbRqNMJlgNiM/H1ev4sYNFBQgLw+XLuHkSRw65ERTBgM+/hijR+O++1Qrj8ETQJKQl4f4eOzdixUrRFfjBTZvxksvWbm745SyMhQVobQUJhOysirvgmRlIScHycnKR8k88wwmT8bgwWjUyKXyamDwRMrNxcmTWLECGzeKLkWosDBERir5tJmZiRs3cOsWSkpw7RpOn8bhw8onYqrtnXcQHo4HHlCtwSrKg5eUlLRq1SqTyaS7865zdSaTqXv37mFhYcePH9+8eXNFRYWdjS2MRmPPnj1HjhzZuHFj+1uaTKYlS5akpaXpbf+qNJvNjRo1mjRpUpMmTVavXv3rr78aDAb7zUqSZDAYJkyYEBwcbH9LqwoLC7du3ZqQkOBvuZNYq+Zhw4YNHDjw4MGD27dvq1/fT5Jw9iySknD1atVMlUYgGAgF7nZ0tHNALFAKOPhXtcYEjAKeqP7ir8ByAHYbNAEPA+OA48AmwCjj6EbgIWAU0NDWFpcv449/tLl/aSlKS2E0oqwMyclITERyMm7dQloaTpxQs0+/ysMPIzwcr72G+vXVbxwAJKV++eUXOe2Hh4dLkrR7926nqlq2bFl+fr79AioqKvr37++wKX9//5SUlFu3boWGhsovYPTo0efOnXP236SwsHDVqlX2W16xYoXRaIyufoVn7Xp9HpADSHb//AA4+PVk1/ZaDZ6Wt+M0QAKcvUUbBRTb+rvExkomkyRJktksmc1SSYmUkiKdPCkdPizt3y998YX09tvSgAHSQw9JQUH2/01U+DN+vJSQIJWXKwqGPMpv0Dg8d1lUnWHatGnzm+xHlydPnixJUlhYWH27v3ACZAwcuOeeeyxfWD0F2RITEyNJ0gcffNC1a1eZu5SVla1bt27ixIn2N7Ocn2v861mblXke0BAIc3TeawMUyKywltrfQZlnTsPvG+sBs+zDhQP1gVDAyvf00CE89hiuXEFaGvLykJuLc+dw4oQ6jyA5ZfFihIaibVv3HsV7R65MmTJFr9ePHTu2YUObn0/kkPkLorbY2NisrKxly5bJ+cxZXFy8fv16h6lz0iygHHgbaG5jA4V/NfU4W8CbQDkwtvZnzq+/xoEDKo9Hc9Yzz+C99zBggCeG8nn1IOlJkyatXr06X92BEs7Yv3//jBkzLly4YH+zvLy8NWvWvP32224oYY5ev9TPz5emoZwErARqriUrSYJTt2ABVq3CoEEeGkDr1cEDEB4eHh0dXejUmr+q2rlz54IFC87bHqGYl5e3bt26yZMnu6kASfqkUaOvhgzJat3aTUfwvOnA34Fi0WVUGjgQ69dj+nR07Oi5g3ruo2ZBgcJLkfDwcL1eP378ePvXew6ZzfKvRqqJiYkxGo3z5s3r0qVLjbeKi4vXrl07bdo0+a1JTt5GliTk5s6/7756r7zy1s8/t1y50qm93UoCFE/FHgE0AEYDgsdHh4UhIgIhIa72IjrLQ8ELCAh47LHHSkpKrN76P3/+fK7dCXQs91rGjh3rsI/BFr1e37x58549e9ZOr06ny8/PP2O392fTpk3Xrl1bu3btndd7+fn5q1evjoiIsH9oPz+/li1bSpJkNpszMzMt93gs/23VqpVOpzMYDNnZ2WV2p/5ZuXJOUFDR7NnTRo9uFROD3+NnBFy5+eDiLF8BQD/AaO1zkx44Ddi/RpgAlALjAVV7pmXz88OKFXjxRTRrJuDoyvvxjh071rt3b4ebRURELFmyJD8/Pz09vfY5R6fTSZL00UcfbZTRhXz69Onu3btX/a/RaBw+fPjevXvt79WhQ4f4+PiOHTteuXKlpKSk9gYGg+HMmTMTJ0686WhG/yVLlkydOrXqd8eFCxdCQkIclj127NhJkyZZ7u5KknTPPfcEBQWlp6dfv34dgE6n0+l069evX7p0qcOmDh3675NP9svLw8mT2LEDS5ZcBRIBM+AHnAL+4rAF4HUgFDADEtAJqHHf6CzQ3fp+1cwAPgPygRtA7Z8fy93OucAmGU0dA3rJ2Exlo0dj0iQ8/rinT3RVPHTGa9KkSZMmTWy927y5rbt21Sj+HWHZsUOHDrY2KCwsrCfjGQ9Jku68RyqznqCgoEcffbTGzdW2bdu2veOO9Y8//iinKZNJAtC0Kfr3R48eGDGi/aZN7bdsQXY2ZJ83HgCelbelQ00Am99T23dia1D4+d8VS5fixRfVHHipgFfcXFF89aViAQpqkNlRYfmQ6XAbZ4/erBn698eiRdi4Ee+8A9k/wWqNEHTYjjcORXzkEWzdikmTBKcO3tyPR3I0blz5KHTfvhgzRs4e3pgHz5gzB2++CdufezyKwfMF9et7y8+Td+rWDXPnYvBg2L7c8TQGz0fwIRNbxo3D1Kl4+GEoHcLkFgwe+bJvvsELL8ALxx4weOSbXn4ZERHo08e7TnRVGDzyNQEBmDcPo0fj3ntFl2KbV3QnkGcYDPjDH0QX4WY9e2LzZoSHe3XqwOBZGAwGOZ1ywvsbXWQyYdQoHDuGKVPg6EF8TXrrLWzahBEj4NqTZJ5QJz5qWgampaenl5eX1w6YXq9PS0szmRyP9737bodzMXi7Jk3QqxceeAChoVi8GP/8p+iCVNK5Mz75BIMGoWlT0aXIU1eCV1BQsHDhwm3bttUeuabX64uKijIzM+03Eh4ePnToUMWP1XoJS69D/foIDnb7Q9YeM24cpkxBjx5aWotCO5W6xmw25+bmpqamKts9PDx85syZbdq0Ubcqz6vq7ktPx7JlQktRSWQkxo3zxg4D++pK8PD7ZCcKzJ49e8qUKVVzt/iA8nLIm6rKqw0fjlmz0LevsCcMXFGHgqfMe++952OpA1BcjP37RRfhAoMBs2YhPBxt23ppN51DDJ4VDz74YNeuXTMyMnr06BEeHu5LqbP8mCYmqjnrq4f16YOZM/HMM5q5j2JVnQ6ewWBo165du3btgoODO3XqFBIScu+99wYEBNSrV69Bgwbnzp0LDg72pdRVOXJE8MxCir3xBqZPh4zHj71dXQmeJEl3zi4xf/78ESNGBAUFNW/e3PIMeI3tExISVq5c+de//tWzZbqdnx+ysnDsmOg6nNexI+bOxSuvaKCPTo46ETxJkho1ajR37txZs2ZZMmYymdLS0q5fv27p4qvazPKF0WiMioo6cODA/fff/8knn/hp6C61I3o9rl3Dhg2i63DS229j/Hj07AlnJiX2ar7zI2WHJEn+/v49e/aseuXmzZuzZs1as2aN/R2XL1/+8ssvP/LII+6tz4Oys3UnToguwhlNm2LqVEyZosJakF5Fgzdi1dCiRYuRI0c63KygoCAuLk7xxIRVPNDtLqezpHlzXL2qc/TbRi0q/JX79MGWLfjwQ19LHTx2xjMajeXl5bVnFrF80pMzXAsuTHZkVd++fUNDQ2MdrU0eGRk5fPjwvn371n5L5tDN8vLy/Px8g8Fgqb9evXqBgYFlZWWW+fx0Op1er7c/t5+tI966devatWsmk8nf3z9Rxt2S0lIkJ1//+efTv88yFgQo7njWASagzMYsYwbZcwfa/J5+9BFef91nn6z3UPDOnz+/Y8cOW8t0yVl4KDQ0VOZkZDI1a9ZszJgxDoMHYMOGDV27dq199GbNmr388stxcXH2d9+zZ09OTo7la6PROGrUqGHDhh08eDA6Otoyu6Zerz958qTDMgYMGNC6+gCNCxcuzJkzJy8vz9/f3/7EpBZFRTh2bCPwC2ACyoFIYJjDvWw7D2yzsUyXHpDTQz/GavKfeAJTp+L5533kPop1itcZSkhIkNN+RESEJEm7du1ypcgnn3wyKSmpRgEVFRVDhgxxuG+HDh2Sk5Ot/hUyMjL69esnp4Dt27dbbeHixYuPO7mIsNVluhzq3r374cOHzWbznUf/4Ycf2rdv71Q71dVepktm794MQAKcW3qtloFAYu0lssLCpGPHpOp/UR/koWs8nU6neKDjsGHDoqOjO3XqpG5JAFq1aiVzfZ+YmJgbN27Ufr1z587R0dEjRoyQf1Cry3TZ16lTp+jo6CeeeKLGXjqdTs50oLa5eBmmd+EewdPASqDalPhduuDbb/HFF+jVS6vjUeTz9psroaGhn3/++R/c9vzm008/PXz4cIebbd68+fvvv7f6VnBwcGRk5Bh5c+sp8NRTT8XGxj700ENuat81yvLxCvAt0KHGqy1a4LnnVF5q3Gt5dfBeeumluXPndu7c2X2HaNu27QsvvCBny48//tjWo0NdunT58MMPX331VVVLA4DBgwd/+umnvXoJmOTcbV4B5gNWvqeHDuH06boyXZr3Bq93796RkZFuTR0AnU43cOBAOddply9f3rFjh607mZ06dVq4cKGz13v2hYSE/O1vf3v00UdVbFO0p4FPAJuL7H71FX6/D+XjlAdPkverydJVIEmSU71hI0eO3Lhx4/33329/M6O1JYxrcLi2XlBQUHh4uJyqlixZYmeRyo4dO8bGxjr8zGmJrsN/vZCQkLi4uDs7/WuTJMnqMiyy1a5B5unG0v1jdnKZrkHAWsDetfqePdi7FxqfYUMW5d0J9erV6927d0VFhcHG9B2SJJWWllruwjdo0KBXr16W7iz7zZaWlvbr1y8iIkLOdV379u27devm7+9v615FRUVF27Zt7R/Uz8/vkUce+fOf/5ySkmJnnXRJki5evHjixIlOnTrZuqXRsWPHefPmNW3aND4+vkGDmiu/SZJUXFxsWWmsYcOGwcHBjRs3rl15WVlZt27dZs2aVXs5vhoCAwM7d+7cvHlz+4PadDqUlKD60ppmoAQIrLWtAQgB6tn+jSwBxUALAEB94HGg9Pcl0W2RgHKgDzAdcHwP9p//RJ8+Ptt9V0X5Ml2FhYXp6ekOd2/QoEG7du3y8vIyMzPlHEuSpKZNm8q5BSpJ0tWrV8vLy+1vZjAYgoKCAgNr/5DdZjKZUlNTy8rK7N9slCQpMDAwKCjI/g96RkZGbm6urabuuuuuli1bZmdnZ2dn2zpKw4YN27VrZ+cQFgUFBRkZGQ778Q0G7N6NqVNrHgdoCdSYRaYISHN0WAloBAQBeUCmvJOkBDQB5E41ERODUaN8czqmKsqDR1pRUYGoKPzf/4muQ7a+fRETI35BH7fy3psrpJZr1/Dll6KLcMahQ9i8WXQRbsbg+b7UVFy9KroIJ61bh+Rk0UW4E4Pn44qLsWeP6CKcd+YMDhyAo+t3DWPwfFxGBn7+Wc0GH3gAkyd7YvjytGm4ds3tRxGFwfNxP/2EgwdVa61HD3z1FT77DHFxeO451Zq1qrgYW7dC3vNS2sPg+bLSUjUnNerYEYsXo18/BARg8GAsXoyICNUatyourkb3o+9g8HxZcjL27VOtteXL8fTTldOk6/Xo0gVz5mDxYtXar+2XX7B/v29e6TF4vuzSJXUmFLvvPuzahWefrbk4QYsWiIhAfDz+9CcVjmLVe+9peApQOxg8n1VcDEcPx8sSHIyvv8agQdbfNRgwYACiojBzpgrHsmrdOh+80uPIFZ+VmqrC4I+77sKaNRg8GHaH3AFAdjZiY/HuuygtdfWgtSUkwIemegN4xvNVZjP++18V2vn73zF0qOPUAWjeHBMnYssWWJsXylVbt8Llqd68C4Pnm0pKXO2+a90amzbh+eedmEPWzw/Dh2PNGkyb5tKha1uwANqaDtQhBs83JSW5dD+zbVtEReH555Us9Xj//Zg7F0uXqvxoz9atkDGRmmYweL4pJQVJScp3X7QIzz2H+vUV7n733XjrLXz9NZ58UnkNNaxciaNHVWtNOAbPB2VluXS6W7MGr76KWs/xOqdBAzz7LP7xD7zxhkvtVCkuRnQ08vLUaU04Bs8HZWXhX/9SsmNAANaswahRcGnSwDt06oRFi/DNN+osNrJhAw4dUqEdb8Dg+RpJwsGDSE93ekeDAcuWYeRIWfcw5bv7bowbhx07MHiwCq2tXQsbD+5rDIPna8rKEB+vZMeoKIwahcaN1S4ICAzEkCH44guEhrra1JYtOHrUF6YAZPB8zfHj+PFHp/dauhRhYW6cTFanQ5cu+OYbREW52tTq1bA2qbfGMHi+5sIFZGQ4t0tUFMLCEBDgnoLu0LgxwsIQH+/Sx87vvlNnbIBYDJ5Pycx0+nPm559jzBi3fMK0qkED9O+PL7/E+PHKG4mL095kFjVwrKZPuXABISFObL9gASZPRpMmbivItowMbN5ce9JBuVatUq2jQgie8XxHeTkOHHBi+wULEBEhJnUAWrfGO+/ghx8UdrLPno00hzOAejEGz3cUFcHGikZWLFyIiROVj01Rhb8/nnoK336r5En2rCzs2gUZU/h7KQbPd5w/L/eZ0fnz8eabaNbMzQXJoNMhJATvv48lS5zed80apKS4oSaPYPB8x7FjsuainD0b06dD1WWtXdWyJSZPxr596NbNib2OHEF8vFYnhmDwfERqqqxZHubMwV/+4rl7mPL5+2PQIHz3HSZMcGKvb75xaSy4QAyej7hyBTExDrb58ENMm4amTT1SkCLBwZg/H8uXo0ULWdufOoUdO1BR4eay3IDB8wUVFUhIcLDN9OkID0fLlh4pyAVt2mD8eMTGyt1+yxbYXrPQezF4viA/H5GR9jaYNAnz5mkgdRaBgRg0CBcuyOrlO30amze7ZaIXt2IHui84eBD9+9t8d+ZMzJqFVq08V49asrKwbZusq75Tp/DQQ+4vSD0842me2Wyv33zGDEyfrsnUAWjZEq+/jt270a+fgy3j4uDSotQex+Bp3o0bOHXK+ltvvIF338U993i2IFUFBmLoUCxf7mBs5/LlGpsNicHTvMREbN9u5fU33kBkJFq39nhBbvDgg/j0U3z7rc0NcnKwfTtu3fJgTa5h8LStqAhnz1p5PTwc8+Z5Vy+5i5o3x7hx2LfP5rydn32mpcneGTxty8nBli01X5wwATNmoF07EQW5U0AABg1CVBQmTbLyrtmM1atRVOTxshThXU1t27cPQ4ZUeyU0FIsWIShIUEEekZWFuDjr8du9G0OHerwg5/GMp2EVFTWXWR43DpGRPp46AC1bYsIE7NyJgQNrvrVpkzZmQ2LwNCw1tdpVzZtv4oMPfPATplUGA4YNw9KlmD692utr1+LECQ3MhsTgadjx47cnenjtNbz7Lv74R6EFeZblkaLZs/Hpp9VeX7sWN28Kqkk2Bk+ryspw/Hjl1y+8gAULEBwstCBBWrZERAR27cLjj1e+EhOjcIJDT2LwtCo9vXJ85muvYdEidOwouiBx/PwwdCj+8Y/bYzu3bkVqqtCaHGHwNEmScOkSAISG4v336+i57k46Hbp2xfvv48svAWDTJhw86NVXeuxO0KTSUkyejEuXsHy5c09t+7yyMuzejfffR24uTp3y3oE7PONpUmoqMjKwciVTV1NAAF58EVu34rnnsGWL9570eMbTHknCvn1o0QK9eokuxYtlZ2PrVgwahPbtRZdiDYOnSdnZaNYMBoPoOrxbSQmKi710wCqDRyQAr/GIBGDwiARg8IgEYPCIBGDwiARg8IgEYPCIBGDwiARg8IgEYPCIBGDwiARg8IgEYPCIBGDwiARg8IgEYPCIBGDwiARg8IgEYPCIBGDwiARg8IgEYPCIBGDwiARg8IgEYPCIBGDwiARg8IgEYPCIBGDwiARg8IgEYPCIBGDwiARg8IgEYPCIBGDwiARg8IgEYPCIBGDwiARg8IgEYPCIBGDwiARg8IgEYPCIBGDwiARg8IgEYPCIBGDwiARg8IgEYPCIBGDwiARg8IgEYPCIBGDwiARg8IgEYPCIBGDwiARg8IgEYPCIBGDwiARg8IgEYPCIBGDwiARg8IgEYPCIBGDwiARg8IgEYPCIBGDwiARg8IgEYPCIBPh/ChQLXAv7Fz8AAAAASUVORK5CYII=;glass=0;strokeColor=default;strokeWidth=2;fontSize=48;fontColor=#000000;fillColor=none;align=center;" vertex="1" parent="-9d_PE074A_p4kZVie2n-20">
          <mxGeometry x="42" y="110" width="128" height="128" as="geometry" />
        </mxCell>
        <mxCell id="-9d_PE074A_p4kZVie2n-12" value="" style="group" vertex="1" connectable="0" parent="1">
          <mxGeometry x="700" y="40" width="479" height="362" as="geometry" />
        </mxCell>
        <mxCell id="-9d_PE074A_p4kZVie2n-8" value="" style="rounded=1;arcSize=10;strokeColor=none;fillColor=#DBDBDB;gradientColor=none;" vertex="1" parent="-9d_PE074A_p4kZVie2n-12">
          <mxGeometry x="10" y="70" width="420" height="274.75" as="geometry" />
        </mxCell>
        <mxCell id="-9d_PE074A_p4kZVie2n-5" value="&lt;div&gt;pim17&lt;/div&gt;&lt;br&gt;MMDVM_HS_Hat" style="shape=image;html=1;verticalAlign=top;verticalLabelPosition=bottom;labelBackgroundColor=#ffffff;imageAspect=0;aspect=fixed;image=https://cdn0.iconfinder.com/data/icons/electronics-line-style/64/Hotspot-128.png" vertex="1" parent="-9d_PE074A_p4kZVie2n-12">
          <mxGeometry x="40" width="70" height="70" as="geometry" />
        </mxCell>
        <mxCell id="FWqg4HvqDN0VGGEIyTF8-19" style="edgeStyle=orthogonalEdgeStyle;rounded=0;orthogonalLoop=1;jettySize=auto;html=1;exitX=0.5;exitY=1;exitDx=0;exitDy=0;entryX=0.5;entryY=0;entryDx=0;entryDy=0;fontSize=20;fontColor=#000000;startArrow=classic;startFill=1;endArrow=classic;endFill=1;" edge="1" parent="-9d_PE074A_p4kZVie2n-12" source="FWqg4HvqDN0VGGEIyTF8-14" target="FWqg4HvqDN0VGGEIyTF8-15">
          <mxGeometry relative="1" as="geometry" />
        </mxCell>
        <mxCell id="FWqg4HvqDN0VGGEIyTF8-14" value="&lt;b&gt;M17Gateway&lt;/b&gt;&lt;br&gt;Reflector chosen by configuration" style="rounded=1;whiteSpace=wrap;html=1;glass=0;strokeColor=default;strokeWidth=2;fontSize=20;fontColor=#000000;fillColor=none;labelBackgroundColor=default;spacingTop=0;spacing=20;" vertex="1" parent="-9d_PE074A_p4kZVie2n-12">
          <mxGeometry x="30" y="154" width="250" height="86" as="geometry" />
        </mxCell>
        <mxCell id="FWqg4HvqDN0VGGEIyTF8-17" value="&lt;div&gt;&lt;b&gt;MMDVM_HS_Hat&lt;/b&gt;&lt;/div&gt;&lt;div&gt;/dev/ttyAMA0&lt;br&gt;Simplex RF modem ADF7021&lt;br&gt;&lt;/div&gt;" style="shape=mxgraph.cisco.modems_and_phones.rf_modem;html=1;pointerEvents=1;dashed=0;fillColor=#036897;strokeColor=#ffffff;strokeWidth=2;verticalLabelPosition=bottom;verticalAlign=top;align=center;outlineConnect=0;glass=0;labelBackgroundColor=default;fontSize=20;fontColor=#000000;" vertex="1" parent="-9d_PE074A_p4kZVie2n-12">
          <mxGeometry x="348" y="298" width="82" height="42" as="geometry" />
        </mxCell>
        <mxCell id="FWqg4HvqDN0VGGEIyTF8-18" style="edgeStyle=orthogonalEdgeStyle;rounded=0;orthogonalLoop=1;jettySize=auto;html=1;exitX=1;exitY=0.5;exitDx=0;exitDy=0;entryX=0;entryY=0.5;entryDx=0;entryDy=0;entryPerimeter=0;fontSize=20;fontColor=#000000;startArrow=classic;startFill=1;endArrow=classic;endFill=1;" edge="1" parent="-9d_PE074A_p4kZVie2n-12" source="FWqg4HvqDN0VGGEIyTF8-15" target="FWqg4HvqDN0VGGEIyTF8-17">
          <mxGeometry relative="1" as="geometry" />
        </mxCell>
        <mxCell id="FWqg4HvqDN0VGGEIyTF8-24" value="Serial 115200" style="edgeLabel;html=1;align=center;verticalAlign=middle;resizable=0;points=[];fontSize=20;fontColor=#000000;" vertex="1" connectable="0" parent="FWqg4HvqDN0VGGEIyTF8-18">
          <mxGeometry x="0.0476" y="-2" relative="1" as="geometry">
            <mxPoint as="offset" />
          </mxGeometry>
        </mxCell>
        <mxCell id="FWqg4HvqDN0VGGEIyTF8-15" value="&lt;div&gt;&lt;b&gt;MMDVMHost&lt;/b&gt;&lt;/div&gt;" style="rounded=1;whiteSpace=wrap;html=1;glass=0;strokeColor=default;strokeWidth=2;fontSize=20;fontColor=#000000;fillColor=none;labelBackgroundColor=default;" vertex="1" parent="-9d_PE074A_p4kZVie2n-12">
          <mxGeometry x="15" y="280" width="150" height="60" as="geometry" />
        </mxCell>
        <mxCell id="FWqg4HvqDN0VGGEIyTF8-22" style="edgeStyle=orthogonalEdgeStyle;rounded=0;orthogonalLoop=1;jettySize=auto;html=1;exitX=0;exitY=0.5;exitDx=0;exitDy=0;entryX=1.015;entryY=0.5;entryDx=0;entryDy=0;entryPerimeter=0;fontSize=20;fontColor=#000000;startArrow=classic;startFill=1;endArrow=classic;endFill=1;" edge="1" parent="1" source="-9d_PE074A_p4kZVie2n-21" target="FWqg4HvqDN0VGGEIyTF8-17">
          <mxGeometry relative="1" as="geometry" />
        </mxCell>
        <mxCell id="FWqg4HvqDN0VGGEIyTF8-23" value="&lt;div&gt;RF &lt;span style=&quot;white-space: pre;&quot;&gt;	&lt;/span&gt;&lt;b&gt;M17&lt;/b&gt;&lt;/div&gt;&lt;div&gt;9600bps&lt;/div&gt;&lt;div&gt;4800sym/s 4FSK&lt;br&gt;&lt;/div&gt;&lt;div&gt;Voice: Codec2 3200&lt;br&gt;&lt;/div&gt;" style="edgeLabel;html=1;align=center;verticalAlign=middle;resizable=0;points=[];fontSize=20;fontColor=#000000;" vertex="1" connectable="0" parent="FWqg4HvqDN0VGGEIyTF8-22">
          <mxGeometry x="-0.2206" y="2" relative="1" as="geometry">
            <mxPoint x="-1" as="offset" />
          </mxGeometry>
        </mxCell>
        <mxCell id="-9d_PE074A_p4kZVie2n-21" value="MD-UV380 OpenRTX M17 modded" style="shape=image;html=1;verticalAlign=top;verticalLabelPosition=bottom;labelBackgroundColor=#ffffff;imageAspect=0;aspect=fixed;image=https://cdn2.iconfinder.com/data/icons/web-development-and-studio/512/110_walkie_talkie_communication_radio_camping_camping_camp-128.png;fillColor=#A2A39E;" vertex="1" parent="1">
          <mxGeometry x="1470" y="298" width="128" height="128" as="geometry" />
        </mxCell>
        <mxCell id="-9d_PE074A_p4kZVie2n-27" value="" style="group" vertex="1" connectable="0" parent="1">
          <mxGeometry x="1470" y="260" width="130" height="100" as="geometry" />
        </mxCell>
        <mxCell id="-9d_PE074A_p4kZVie2n-22" value="" style="verticalLabelPosition=bottom;verticalAlign=top;html=1;shape=mxgraph.basic.arc;startAngle=0.6044340865200333;endAngle=0.8998071947233861;fillColor=#A2A39E;strokeWidth=2;" vertex="1" parent="-9d_PE074A_p4kZVie2n-27">
          <mxGeometry width="100" height="100" as="geometry" />
        </mxCell>
        <mxCell id="-9d_PE074A_p4kZVie2n-23" value="" style="verticalLabelPosition=bottom;verticalAlign=top;html=1;shape=mxgraph.basic.arc;startAngle=0.6529287099999843;endAngle=0.8557379197186956;fillColor=#A2A39E;strokeWidth=2;" vertex="1" parent="-9d_PE074A_p4kZVie2n-27">
          <mxGeometry x="10" width="100" height="100" as="geometry" />
        </mxCell>
        <mxCell id="-9d_PE074A_p4kZVie2n-24" value="" style="verticalLabelPosition=bottom;verticalAlign=top;html=1;shape=mxgraph.basic.arc;startAngle=0.6897358070533419;endAngle=0.8125923613305674;fillColor=#A2A39E;strokeWidth=2;" vertex="1" parent="-9d_PE074A_p4kZVie2n-27">
          <mxGeometry x="20" width="100" height="100" as="geometry" />
        </mxCell>
        <mxCell id="-9d_PE074A_p4kZVie2n-25" value="" style="verticalLabelPosition=bottom;verticalAlign=top;html=1;shape=mxgraph.basic.arc;startAngle=0.7263034288612551;endAngle=0.7829438308915222;fillColor=#A2A39E;strokeWidth=2;" vertex="1" parent="-9d_PE074A_p4kZVie2n-27">
          <mxGeometry x="30" width="100" height="100" as="geometry" />
        </mxCell>
        <mxCell id="FWqg4HvqDN0VGGEIyTF8-12" style="edgeStyle=orthogonalEdgeStyle;rounded=0;orthogonalLoop=1;jettySize=auto;html=1;exitX=0;exitY=0.5;exitDx=0;exitDy=0;entryX=1;entryY=0.197;entryDx=0;entryDy=0;fontSize=48;fontColor=#000000;entryPerimeter=0;" edge="1" parent="1" source="FWqg4HvqDN0VGGEIyTF8-11" target="-9d_PE074A_p4kZVie2n-3">
          <mxGeometry relative="1" as="geometry" />
        </mxCell>
        <mxCell id="FWqg4HvqDN0VGGEIyTF8-13" value="&lt;div style=&quot;font-size: 20px;&quot;&gt;DVRef 17000 UDP&lt;/div&gt;" style="edgeLabel;html=1;align=center;verticalAlign=middle;resizable=0;points=[];fontSize=48;fontColor=#000000;" vertex="1" connectable="0" parent="FWqg4HvqDN0VGGEIyTF8-12">
          <mxGeometry x="0.2302" y="3" relative="1" as="geometry">
            <mxPoint as="offset" />
          </mxGeometry>
        </mxCell>
        <mxCell id="FWqg4HvqDN0VGGEIyTF8-20" style="edgeStyle=orthogonalEdgeStyle;rounded=0;orthogonalLoop=1;jettySize=auto;html=1;exitX=0;exitY=0.5;exitDx=0;exitDy=0;entryX=1;entryY=0.75;entryDx=0;entryDy=0;fontSize=20;fontColor=#000000;startArrow=classic;startFill=1;endArrow=classic;endFill=1;" edge="1" parent="1" source="FWqg4HvqDN0VGGEIyTF8-14" target="-9d_PE074A_p4kZVie2n-3">
          <mxGeometry relative="1" as="geometry" />
        </mxCell>
        <mxCell id="FWqg4HvqDN0VGGEIyTF8-21" value="DVRef 17000 UDP" style="edgeLabel;html=1;align=center;verticalAlign=middle;resizable=0;points=[];fontSize=20;fontColor=#000000;" vertex="1" connectable="0" parent="FWqg4HvqDN0VGGEIyTF8-20">
          <mxGeometry x="0.2721" y="-3" relative="1" as="geometry">
            <mxPoint as="offset" />
          </mxGeometry>
        </mxCell>
        <mxCell id="FWqg4HvqDN0VGGEIyTF8-27" value="" style="group" vertex="1" connectable="0" parent="1">
          <mxGeometry x="40" y="490" width="410" height="340" as="geometry" />
        </mxCell>
        <mxCell id="FWqg4HvqDN0VGGEIyTF8-28" value="" style="rounded=1;arcSize=10;strokeColor=none;fillColor=#DBDBDB;gradientColor=none;" vertex="1" parent="FWqg4HvqDN0VGGEIyTF8-27">
          <mxGeometry y="58.620689655172406" width="410" height="281.37931034482756" as="geometry" />
        </mxCell>
        <mxCell id="FWqg4HvqDN0VGGEIyTF8-29" value="&lt;div&gt;Server (Any IP network, including internet or microwave links)&lt;/div&gt;" style="aspect=fixed;perimeter=ellipsePerimeter;html=1;align=center;shadow=0;dashed=0;spacingTop=3;image;image=img/lib/active_directory/generic_server.svg;" vertex="1" parent="FWqg4HvqDN0VGGEIyTF8-27">
          <mxGeometry x="160" width="28.000000000000004" height="50" as="geometry" />
        </mxCell>
        <mxCell id="FWqg4HvqDN0VGGEIyTF8-30" value="&lt;div&gt;Reflector Web &lt;br&gt;&lt;/div&gt;&lt;div&gt;Dashboard&lt;/div&gt;&lt;div&gt;(any web server)&lt;br&gt;&lt;/div&gt;&lt;br&gt;&lt;div&gt;::80 / ::443 (TCP)&lt;/div&gt;" style="dashed=0;outlineConnect=0;html=1;align=center;labelPosition=center;verticalLabelPosition=bottom;verticalAlign=top;shape=mxgraph.weblogos.apache;labelBackgroundColor=default;" vertex="1" parent="FWqg4HvqDN0VGGEIyTF8-27">
          <mxGeometry x="30" y="81.4" width="42.6" height="85.2" as="geometry" />
        </mxCell>
        <mxCell id="FWqg4HvqDN0VGGEIyTF8-31" style="edgeStyle=orthogonalEdgeStyle;rounded=0;orthogonalLoop=1;jettySize=auto;html=1;exitX=0;exitY=0.5;exitDx=0;exitDy=0;fontSize=20;fontColor=#000000;startArrow=none;startFill=0;endArrow=classic;endFill=1;" edge="1" parent="1" source="FWqg4HvqDN0VGGEIyTF8-33" target="FWqg4HvqDN0VGGEIyTF8-30">
          <mxGeometry relative="1" as="geometry" />
        </mxCell>
        <mxCell id="FWqg4HvqDN0VGGEIyTF8-32" value="Dashboard reads json state" style="edgeLabel;html=1;align=center;verticalAlign=middle;resizable=0;points=[];fontSize=12;fontColor=#000000;" vertex="1" connectable="0" parent="FWqg4HvqDN0VGGEIyTF8-31">
          <mxGeometry x="0.1658" y="2" relative="1" as="geometry">
            <mxPoint x="20" y="-2" as="offset" />
          </mxGeometry>
        </mxCell>
        <mxCell id="FWqg4HvqDN0VGGEIyTF8-33" value="&lt;div&gt;DVRef-compatible&lt;/div&gt;&lt;div&gt;Reflector&lt;br&gt;e.g. M17-RTX&lt;br&gt;&lt;/div&gt;&lt;br&gt;&lt;div&gt;::17000 (UDP)&lt;br&gt;(This diagram ignores &lt;br&gt;modules/channels)&lt;br&gt;&lt;/div&gt;" style="shape=image;html=1;verticalAlign=top;verticalLabelPosition=bottom;labelBackgroundColor=#ffffff;imageAspect=0;aspect=fixed;image=https://cdn4.iconfinder.com/data/icons/ui-office/512/User_Interface-26-128.png" vertex="1" parent="1">
          <mxGeometry x="307" y="550" width="128" height="128" as="geometry" />
        </mxCell>
        <mxCell id="FWqg4HvqDN0VGGEIyTF8-34" style="edgeStyle=orthogonalEdgeStyle;rounded=0;orthogonalLoop=1;jettySize=auto;html=1;exitX=0.75;exitY=1;exitDx=0;exitDy=0;entryX=0.75;entryY=0;entryDx=0;entryDy=0;fontSize=12;fontColor=#000000;startArrow=classic;startFill=1;endArrow=classic;endFill=1;" edge="1" parent="1" source="-9d_PE074A_p4kZVie2n-3" target="FWqg4HvqDN0VGGEIyTF8-33">
          <mxGeometry relative="1" as="geometry" />
        </mxCell>
        <mxCell id="FWqg4HvqDN0VGGEIyTF8-35" value="DVRef Reflector Linking&lt;br&gt;(per-module basis!)" style="edgeLabel;html=1;align=center;verticalAlign=middle;resizable=0;points=[];fontSize=12;fontColor=#000000;" vertex="1" connectable="0" parent="FWqg4HvqDN0VGGEIyTF8-34">
          <mxGeometry x="0.1243" y="2" relative="1" as="geometry">
            <mxPoint x="1" as="offset" />
          </mxGeometry>
        </mxCell>
      </root>
    </mxGraphModel>
  </diagram>
  <diagram id="q1ZaIJtIT_LuBtj86BOX" name="Scratch space">
    <mxGraphModel dx="1102" dy="-489" grid="1" gridSize="10" guides="1" tooltips="1" connect="1" arrows="1" fold="1" page="1" pageScale="1" pageWidth="850" pageHeight="1100" math="0" shadow="0">
      <root>
        <mxCell id="0" />
        <mxCell id="1" parent="0" />
        <mxCell id="wEM644wXGjv3cYZoPlRB-1" value="" style="group" vertex="1" connectable="0" parent="1">
          <mxGeometry x="210" y="1380" width="130" height="100" as="geometry" />
        </mxCell>
        <mxCell id="wEM644wXGjv3cYZoPlRB-2" value="" style="verticalLabelPosition=bottom;verticalAlign=top;html=1;shape=mxgraph.basic.arc;startAngle=0.6044340865200333;endAngle=0.8998071947233861;fillColor=#A2A39E;strokeWidth=2;" vertex="1" parent="wEM644wXGjv3cYZoPlRB-1">
          <mxGeometry width="100" height="100" as="geometry" />
        </mxCell>
        <mxCell id="wEM644wXGjv3cYZoPlRB-3" value="" style="verticalLabelPosition=bottom;verticalAlign=top;html=1;shape=mxgraph.basic.arc;startAngle=0.6529287099999843;endAngle=0.8557379197186956;fillColor=#A2A39E;strokeWidth=2;" vertex="1" parent="wEM644wXGjv3cYZoPlRB-1">
          <mxGeometry x="10" width="100" height="100" as="geometry" />
        </mxCell>
        <mxCell id="wEM644wXGjv3cYZoPlRB-4" value="" style="verticalLabelPosition=bottom;verticalAlign=top;html=1;shape=mxgraph.basic.arc;startAngle=0.6897358070533419;endAngle=0.8125923613305674;fillColor=#A2A39E;strokeWidth=2;" vertex="1" parent="wEM644wXGjv3cYZoPlRB-1">
          <mxGeometry x="20" width="100" height="100" as="geometry" />
        </mxCell>
        <mxCell id="wEM644wXGjv3cYZoPlRB-5" value="" style="verticalLabelPosition=bottom;verticalAlign=top;html=1;shape=mxgraph.basic.arc;startAngle=0.7263034288612551;endAngle=0.7829438308915222;fillColor=#A2A39E;strokeWidth=2;" vertex="1" parent="wEM644wXGjv3cYZoPlRB-1">
          <mxGeometry x="30" width="100" height="100" as="geometry" />
        </mxCell>
        <mxCell id="wEM644wXGjv3cYZoPlRB-6" value="Scratch space" style="text;html=1;align=center;verticalAlign=middle;resizable=0;points=[];autosize=1;strokeColor=none;fillColor=none;fontColor=#000000;fontSize=48;fontStyle=1" vertex="1" parent="1">
          <mxGeometry y="1260" width="350" height="70" as="geometry" />
        </mxCell>
      </root>
    </mxGraphModel>
  </diagram>
</mxfile>
